<svg xmlns="http://www.w3.org/2000/svg" xmlns:xlink="http://www.w3.org/1999/xlink" width="500" zoomAndPan="magnify" viewBox="0 0 375 374.999991" height="500" preserveAspectRatio="xMidYMid meet" version="1.0"><defs><g/><clipPath id="e2c2b0be4c"><path d="M 225 111 L 358.792969 111 L 358.792969 314 L 225 314 Z M 225 111 " clip-rule="nonzero"/></clipPath><clipPath id="fde0d7476f"><path d="M 64 225 L 266 225 L 266 358.792969 L 64 358.792969 Z M 64 225 " clip-rule="nonzero"/></clipPath><clipPath id="d922270afc"><path d="M 19.042969 64 L 153 64 L 153 266 L 19.042969 266 Z M 19.042969 64 " clip-rule="nonzero"/></clipPath><clipPath id="afd5a8f336"><path d="M 111 19.042969 L 314 19.042969 L 314 153 L 111 153 Z M 111 19.042969 " clip-rule="nonzero"/></clipPath></defs><g clip-path="url(#e2c2b0be4c)"><path fill="#70a33c" d="M 225.082031 313.726562 C 249.078125 311.144531 302.847656 294.554688 316.242188 215.976562 C 320.25 217.675781 324.535156 218.828125 329.089844 218.828125 C 345.675781 218.828125 358.792969 205.371094 358.792969 189.125 C 358.792969 172.539062 345.675781 159.078125 329.089844 159.078125 C 323.105469 159.078125 317.398438 160.777344 312.773438 163.902344 C 299.316406 140.453125 289.050781 132.160156 257.917969 111.902344 L 258.800781 112.785156 L 259.070312 112.785156 L 259.070312 113.058594 C 279.398438 131.953125 292.246094 158.804688 292.246094 188.785156 C 292.246094 189.667969 292.246094 190.210938 292.246094 190.753906 C 294.828125 241.398438 270.558594 295.371094 225.082031 313.726562 Z M 225.082031 313.726562 " fill-opacity="1" fill-rule="nonzero"/></g><g clip-path="url(#fde0d7476f)"><path fill="#773d8a" d="M 64.113281 225.082031 C 66.695312 249.078125 83.28125 302.578125 161.863281 316.242188 C 160.164062 319.980469 159.007812 324.535156 159.007812 329.089844 C 159.007812 345.402344 172.46875 358.792969 189.054688 358.792969 C 205.371094 358.792969 218.761719 345.335938 218.761719 329.089844 C 218.761719 323.105469 217.0625 317.398438 213.933594 312.773438 C 237.660156 299.316406 245.679688 288.777344 265.9375 257.917969 L 265.054688 258.800781 L 265.054688 259.070312 C 249.351562 275.929688 227.871094 287.691406 203.875 291.089844 L 188.988281 317.667969 L 174.507812 292.246094 C 127.875 290.816406 81.039062 266.820312 64.113281 225.082031 Z M 64.113281 225.082031 " fill-opacity="1" fill-rule="nonzero"/></g><g clip-path="url(#d922270afc)"><path fill="#e13990" d="M 152.753906 64.113281 C 128.761719 66.695312 75.261719 83.28125 61.597656 161.863281 C 57.859375 160.164062 53.304688 159.007812 48.75 159.007812 C 32.4375 159.007812 19.042969 172.46875 19.042969 188.714844 C 19.042969 205.300781 32.503906 218.761719 48.75 218.761719 C 54.734375 218.761719 60.441406 217.0625 65.066406 213.933594 C 78.523438 237.386719 89.0625 245.679688 119.921875 265.9375 L 118.765625 264.78125 C 98.441406 245.953125 85.59375 219.101562 85.59375 188.785156 C 85.59375 188.238281 85.59375 187.628906 85.59375 187.085938 C 83.011719 136.441406 107.277344 82.46875 152.753906 64.113281 Z M 152.753906 64.113281 " fill-opacity="1" fill-rule="nonzero"/></g><g clip-path="url(#afd5a8f336)"><path fill="#f0831e" d="M 313.726562 152.753906 C 311.414062 128.761719 294.554688 74.988281 215.976562 61.597656 C 217.675781 57.859375 218.828125 53.304688 218.828125 48.75 C 218.828125 32.4375 205.371094 19.042969 189.125 19.042969 C 172.539062 19.042969 159.078125 32.503906 159.078125 48.75 C 159.078125 54.734375 160.777344 60.441406 163.902344 65.066406 C 140.453125 78.523438 132.160156 89.0625 111.902344 119.921875 L 112.171875 119.921875 L 112.71875 119.039062 L 112.988281 118.765625 C 131.886719 98.441406 158.738281 85.59375 189.054688 85.59375 C 189.597656 85.59375 190.210938 85.59375 190.753906 85.59375 C 241.398438 83.011719 295.371094 107.277344 313.726562 152.753906 Z M 313.726562 152.753906 " fill-opacity="1" fill-rule="nonzero"/></g><path fill="#6bc3fe" d="M 133.042969 172.199219 C 142.492188 172.199219 149.902344 179.605469 149.902344 189.054688 C 149.902344 198.234375 142.492188 205.640625 133.042969 205.640625 C 123.867188 205.640625 116.457031 198.234375 116.457031 189.054688 C 116.457031 179.605469 123.867188 172.199219 133.042969 172.199219 Z M 133.042969 172.199219 " fill-opacity="1" fill-rule="nonzero"/><path fill="#6bc3fe" d="M 189.054688 172.199219 C 198.234375 172.199219 205.640625 179.605469 205.640625 189.054688 C 205.640625 198.234375 198.234375 205.640625 189.054688 205.640625 C 179.605469 205.640625 172.199219 198.234375 172.199219 189.054688 C 172.199219 179.605469 179.605469 172.199219 189.054688 172.199219 Z M 189.054688 172.199219 " fill-opacity="1" fill-rule="nonzero"/><path fill="#6bc3fe" d="M 244.796875 172.199219 C 253.972656 172.199219 261.382812 179.605469 261.382812 189.054688 C 261.382812 198.234375 253.972656 205.640625 244.796875 205.640625 C 235.621094 205.640625 227.9375 198.234375 227.9375 189.054688 C 227.9375 179.605469 235.6875 172.199219 244.796875 172.199219 Z M 244.796875 172.199219 " fill-opacity="1" fill-rule="nonzero"/><g fill="#ffffff" fill-opacity="1"><g transform="translate(186.862053, 189.694864)"><g><path d="M 1.1875 -0.828125 C 1.1875 -1.179688 1.265625 -1.445312 1.421875 -1.625 C 1.585938 -1.800781 1.816406 -1.890625 2.109375 -1.890625 C 2.410156 -1.890625 2.644531 -1.800781 2.8125 -1.625 C 2.988281 -1.445312 3.078125 -1.179688 3.078125 -0.828125 C 3.078125 -0.492188 2.988281 -0.234375 2.8125 -0.046875 C 2.644531 0.140625 2.410156 0.234375 2.109375 0.234375 C 1.847656 0.234375 1.628906 0.148438 1.453125 -0.015625 C 1.273438 -0.179688 1.1875 -0.453125 1.1875 -0.828125 Z M 1.1875 -0.828125 "/></g></g></g></svg>